<?xml version="1.0" ?><svg id="Layer_1" style="enable-background:new 0 0 64 64;" version="1.1" viewBox="0 0 64 64" xml:space="preserve" xmlns="http://www.w3.org/2000/svg" xmlns:xlink="http://www.w3.org/1999/xlink"><style type="text/css">
	.st0{fill:#62BEE7;}
	.st1{fill:#474E5E;}
	.st2{fill:#F3EEE4;}
	.st3{fill:#FFFFFF;}
	.st4{fill:#E8DCCA;}
	.st5{opacity:0.1;fill:#231F20;}
	.st6{fill:#506268;}
	.st7{fill:#EB5151;}
	.st8{fill:#C64444;}
	.st9{fill:#9CCB5B;}
	.st10{fill:#404A4C;}
	.st11{fill:#676767;}
	.st12{fill:#E0E1E5;}
	.st13{fill:#9D9EA0;}
	.st14{fill:#B3B4B7;}
	.st15{opacity:0.1;}
	.st16{fill:#231F20;}
	.st17{fill:#FACC20;}
	.st18{fill:#FDEF34;}
	.st19{fill:#F7A90B;}
	.st20{fill:#20B8EA;}
	.st21{fill:#0077FF;}
	.st22{fill:#33D3F4;}
	.st23{opacity:0.25;fill:#FFFFFF;}
	.st24{fill:#CACBCE;}
	.st25{fill:#2E3545;}
	.st26{fill:#8DAF4A;}
	.st27{fill:#F9C2AF;}
	.st28{fill:#AFDDF4;}
	.st29{fill:#677177;}
	.st30{fill:#FFEDB3;}
	.st31{fill:#695652;}
	.st32{fill:#30A7BF;}
	.st33{fill:#4D5556;}
	.st34{opacity:0.35;}
	.st35{fill:#FFCB04;}
	.st36{fill:#99E9FA;}
	.st37{opacity:0.2;}
	.st38{opacity:3.000000e-02;}
	.st39{fill:#9ECA5B;}
	.st40{fill:#98BA56;}
	.st41{fill:#40EEFF;}
	.st42{fill:#FF6A52;}
	.st43{opacity:0.1;fill:#FFFFFF;}
	.st44{opacity:0.4;}
	.st45{fill:#57606D;}
	.st46{fill:#BACA5B;}
	.st47{opacity:0.25;}
	.st48{opacity:5.000000e-02;fill:#231F20;}
	.st49{opacity:0.2;fill:#FFFFFF;}
	.st50{opacity:0.3;}
	.st51{fill:#FFD82F;}
	.st52{fill:#F4C121;}
	.st53{fill:#EF9D0A;}
	.st54{fill:#F9E532;}
	.st55{fill:#F4C01E;}
	.st56{fill:#FFE14D;}
	.st57{fill:#B7C156;}
	.st58{fill:#DBA92C;}
	.st59{fill:#363D4D;}
	.st60{fill:#3F4656;}
	.st61{fill:#463E33;}
	.st62{fill:none;}
	.st63{opacity:4.000000e-02;}
	.st64{fill:#4DB6AC;}
	.st65{fill:#CADE49;}
	.st66{fill:#9FD343;}
	.st67{fill:#AAD643;}
	.st68{fill:#82C736;}
	.st69{opacity:0.3;fill:#FFFFFF;}
	.st70{fill:#FFD640;}
	.st71{opacity:0.5;}
	.st72{opacity:0.6;}
</style><g><circle class="st21" cx="32" cy="32" r="32"/><g><rect class="st2" height="30.2" width="44.5" x="9.7" y="12.6"/><rect class="st5" height="25.2" width="39.6" x="12.8" y="15.7"/><rect class="st70" height="2.9" width="17.2" x="23.4" y="9.7"/><rect class="st58" height="2.9" width="24.4" x="19.8" y="47.1"/><rect class="st30" height="11.5" transform="matrix(-1 -1.224647e-16 1.224647e-16 -1 35.2735 97.0333)" width="4.3" x="15.5" y="42.8"/><rect class="st70" height="11.5" transform="matrix(-1 -1.224647e-16 1.224647e-16 -1 92.7321 97.0333)" width="4.3" x="44.2" y="42.8"/><rect class="st70" height="11.5" transform="matrix(-1 -1.224647e-16 1.224647e-16 -1 35.2735 97.0333)" width="4.3" x="15.5" y="42.8"/><rect class="st3" height="25.2" width="39.6" x="12.2" y="15.1"/><g><g><polygon class="st12" points="33.1,26 32.4,25.4 38.7,19.1 43,23.5 48.6,17.9 49.2,18.5 43,24.7 38.7,20.4     "/></g><circle class="st7" cx="32.7" cy="25.7" r="1.4"/><circle class="st7" cx="38.6" cy="19.8" r="1.4"/><circle class="st7" cx="43" cy="24.1" r="1.4"/><circle class="st7" cx="48.9" cy="18.2" r="1.4"/></g><g><rect class="st24" height="1.6" width="13.4" x="16.2" y="29.7"/><rect class="st24" height="1.6" width="13.4" x="16.2" y="33.1"/></g><g><rect class="st24" height="1.6" width="13.4" x="16.2" y="36.5"/></g><g><rect class="st1" height="1.6" width="1.2" x="14.1" y="29.7"/><rect class="st1" height="1.6" width="1.2" x="14.1" y="33.1"/></g><g><rect class="st1" height="1.6" width="1.2" x="14.1" y="36.5"/></g></g></g></svg>